<svg width="36" height="36" viewBox="0 0 36 36" fill="none" xmlns="http://www.w3.org/2000/svg">
<path d="M0 0H35.3929V35.3929H0V0Z" fill="white"/>
<path d="M25.4387 26.5447C23.4396 26.5447 21.4529 26.0531 19.4784 25.07C17.5039 24.0869 15.7302 22.8088 14.1572 21.2358C12.5842 19.6627 11.3061 17.889 10.3229 15.9145C9.3398 13.9401 8.84824 11.9533 8.84824 9.95426C8.84824 9.64294 8.95474 9.38077 9.16775 9.16775C9.38077 8.95474 9.64294 8.84824 9.95426 8.84824H13.3952C13.6246 8.84824 13.8254 8.92607 13.9974 9.08173C14.1695 9.23739 14.2801 9.44631 14.3292 9.70848L14.9928 12.8054C15.0256 13.0348 15.0215 13.2437 14.9806 13.4321C14.9396 13.6205 14.8536 13.7803 14.7225 13.9114L12.2646 16.3938C13.1822 17.9177 14.2104 19.2449 15.3492 20.3755C16.488 21.5061 17.7784 22.4647 19.2203 23.2512L21.5553 20.8425C21.7191 20.6623 21.9076 20.5353 22.1206 20.4615C22.3336 20.3878 22.5466 20.3755 22.7596 20.4247L25.6845 21.0637C25.9302 21.1129 26.1351 21.2358 26.2989 21.4324C26.4628 21.629 26.5447 21.8584 26.5447 22.1206V25.4387C26.5447 25.75 26.4382 26.0122 26.2252 26.2252C26.0122 26.4382 25.75 26.5447 25.4387 26.5447Z" fill="#9E5D61"/>
</svg>
