<svg width="36" height="36" viewBox="0 0 36 36" fill="none" xmlns="http://www.w3.org/2000/svg">
<path d="M0 0H35.3929V35.3929H0V0Z" fill="white"/>
<path d="M17.0052 9.10884C19.5769 9.10884 19.8819 9.11847 20.8972 9.16502C21.9471 9.21318 23.0282 9.45236 23.7931 10.2173C24.5653 10.9894 24.7972 12.0601 24.8454 13.1132C24.8919 14.1285 24.9016 14.4335 24.9016 17.0052C24.9016 19.5769 24.8919 19.8819 24.8454 20.8972C24.798 21.9414 24.5532 23.033 23.7931 23.7931C23.021 24.5653 21.9511 24.7972 20.8972 24.8454C19.8819 24.8919 19.5769 24.9016 17.0052 24.9016C14.4335 24.9016 14.1285 24.8919 13.1132 24.8454C12.077 24.798 10.971 24.5476 10.2173 23.7931C9.44915 23.025 9.21318 21.9438 9.16502 20.8972C9.11847 19.8819 9.10884 19.5769 9.10884 17.0052C9.10884 14.4335 9.11847 14.1285 9.16502 13.1132C9.21238 12.073 9.45959 10.975 10.2173 10.2173C10.9878 9.44675 12.0625 9.21318 13.1132 9.16502C14.1285 9.11847 14.4335 9.10884 17.0052 9.10884ZM17.0052 7.37353C14.3894 7.37353 14.0611 7.38477 13.0337 7.43132C11.5448 7.49954 10.0664 7.91371 8.99004 8.99004C7.90969 10.0704 7.49954 11.5456 7.43132 13.0337C7.38477 14.0611 7.37353 14.3894 7.37353 17.0052C7.37353 19.621 7.38477 19.9493 7.43132 20.9767C7.49954 22.464 7.91531 23.9464 8.99004 25.0204C10.0696 26.0999 11.5473 26.5109 13.0337 26.5791C14.0611 26.6256 14.3894 26.6369 17.0052 26.6369C19.621 26.6369 19.9493 26.6256 20.9767 26.5791C22.4648 26.5109 23.9448 26.0959 25.0204 25.0204C26.1015 23.9392 26.5109 22.4648 26.5791 20.9767C26.6256 19.9493 26.6369 19.621 26.6369 17.0052C26.6369 14.3894 26.6256 14.0611 26.5791 13.0337C26.5109 11.5448 26.0959 10.0656 25.0204 8.99004C23.9424 7.9121 22.4607 7.49874 20.9767 7.43132C19.9493 7.38477 19.621 7.37353 17.0052 7.37353Z" fill="#9E5D61"/>
<path d="M17.0046 12.0593C14.2732 12.0593 12.0587 14.2738 12.0587 17.0052C12.0587 19.7365 14.2732 21.951 17.0046 21.951C19.7359 21.951 21.9504 19.7365 21.9504 17.0052C21.9504 14.2738 19.7359 12.0593 17.0046 12.0593ZM17.0046 20.2157C15.2315 20.2157 13.794 18.7782 13.794 17.0052C13.794 15.2321 15.2315 13.7946 17.0046 13.7946C18.7776 13.7946 20.2151 15.2321 20.2151 17.0052C20.2151 18.7782 18.7776 20.2157 17.0046 20.2157Z" fill="#9E5D61"/>
<path d="M22.1462 13.0194C22.7845 13.0194 23.302 12.5019 23.302 11.8636C23.302 11.2252 22.7845 10.7077 22.1462 10.7077C21.5079 10.7077 20.9904 11.2252 20.9904 11.8636C20.9904 12.5019 21.5079 13.0194 22.1462 13.0194Z" fill="#9E5D61"/>
</svg>
