<svg width="36" height="36" viewBox="0 0 36 36" fill="none" xmlns="http://www.w3.org/2000/svg">
<path d="M0 0H35.3929V35.3929H0V0Z" fill="white"/>
<path d="M26.2301 26.2025H22.6306V20.5658C22.6306 19.2216 22.6067 17.4919 20.7585 17.4919C18.884 17.4919 18.5967 18.9558 18.5967 20.4688V26.2025H14.9985V14.6107H18.4543V16.1943H18.5021C19.2072 14.9901 20.5167 14.2707 21.9112 14.3222C25.5597 14.3222 26.2313 16.7222 26.2313 19.8428L26.2301 26.2025ZM10.937 13.0258C9.7831 13.0258 8.84824 12.0909 8.84824 10.937C8.84824 9.7831 9.7831 8.84824 10.937 8.84824C12.0909 8.84824 13.0258 9.7831 13.0258 10.937C13.0258 12.0909 12.0909 13.0258 10.937 13.0258ZM12.7361 26.2025H9.13312V14.6107H12.7361V26.2025Z" fill="#9E5D61"/>
</svg>
