<svg width="36" height="36" viewBox="0 0 36 36" fill="none" xmlns="http://www.w3.org/2000/svg">
<path d="M0 0H35.3929V35.3929H0V0Z" fill="white"/>
<path d="M17.6987 17.4507C18.1724 17.4507 18.5772 17.282 18.9131 16.9446C19.249 16.6073 19.417 16.2017 19.417 15.728C19.417 15.2543 19.2483 14.8495 18.9109 14.5136C18.5736 14.1777 18.168 14.0097 17.6943 14.0097C17.2206 14.0097 16.8157 14.1784 16.4798 14.5158C16.1439 14.8531 15.976 15.2586 15.976 15.7324C15.976 16.2061 16.1447 16.6109 16.482 16.9468C16.8194 17.2827 17.2249 17.4507 17.6987 17.4507ZM17.6965 27.5278C15.0584 25.283 13.088 23.1979 11.7854 21.2726C10.4827 19.3473 9.83137 17.5654 9.83137 15.9268C9.83137 13.469 10.622 11.5109 12.2032 10.0526C13.7844 8.59426 15.6155 7.8651 17.6965 7.8651C19.7774 7.8651 21.6085 8.59426 23.1897 10.0526C24.771 11.5109 25.5616 13.469 25.5616 15.9268C25.5616 17.5654 24.9102 19.3473 23.6076 21.2726C22.3049 23.1979 20.3346 25.283 17.6965 27.5278Z" fill="#9E5D61"/>
</svg>
