<svg width="36" height="36" viewBox="0 0 36 36" fill="none" xmlns="http://www.w3.org/2000/svg">
<path d="M0 0H35.3929V35.3929H0V0Z" fill="white"/>
<path d="M9.3398 25.5616C8.94655 25.5616 8.60245 25.4141 8.30751 25.1192C8.01257 24.8242 7.8651 24.4801 7.8651 24.0869V11.3061C7.8651 10.9128 8.01257 10.5687 8.30751 10.2738C8.60245 9.97884 8.94655 9.83137 9.3398 9.83137H26.0531C26.4464 9.83137 26.7905 9.97884 27.0854 10.2738C27.3804 10.5687 27.5278 10.9128 27.5278 11.3061V24.0869C27.5278 24.4801 27.3804 24.8242 27.0854 25.1192C26.7905 25.4141 26.4464 25.5616 26.0531 25.5616H9.3398ZM17.6965 18.1389L26.0531 12.6579V11.3061L17.6965 16.6642L9.3398 11.3061V12.6579L17.6965 18.1389Z" fill="#9E5D61"/>
</svg>
