<svg width="36" height="36" viewBox="0 0 36 36" fill="none" xmlns="http://www.w3.org/2000/svg">
<path d="M0 0H35.3929V35.3929H0V0Z" fill="white"/>
<path d="M25.751 14.1317C25.762 14.2972 25.762 14.4636 25.762 14.6307C25.762 19.7361 21.875 25.623 14.7697 25.623V25.6199C12.6708 25.623 10.6152 25.022 8.84824 23.8882C9.15345 23.9251 9.46023 23.9432 9.76779 23.944C11.508 23.9455 13.1981 23.3618 14.5657 22.2869C12.9125 22.2555 11.4625 21.1774 10.9565 19.6035C11.5355 19.7149 12.1318 19.6922 12.7006 19.5376C10.8976 19.1736 9.60146 17.5894 9.60146 15.7503C9.60146 15.7338 9.60146 15.7174 9.60146 15.7017C10.1389 16.0014 10.7399 16.1669 11.355 16.185C9.65716 15.0512 9.13305 12.7931 10.1585 11.0278C12.12 13.4412 15.0144 14.9084 18.1207 15.0646C17.8092 13.7229 18.2353 12.3169 19.238 11.373C20.7938 9.90972 23.241 9.98504 24.7043 11.5409C25.5697 11.3707 26.3991 11.0529 27.1578 10.6033C26.869 11.4978 26.2657 12.2573 25.4591 12.7406C26.2257 12.6488 26.9734 12.444 27.6788 12.1317C27.1601 12.9077 26.5073 13.5848 25.751 14.1317Z" fill="#9E5D61"/>
</svg>
